<?xml version="1.0" encoding="UTF-8" standalone="no"?>
<!DOCTYPE svg PUBLIC "-//W3C//DTD SVG 1.1//EN" "http://www.w3.org/Graphics/SVG/1.1/DTD/svg11.dtd">
<svg width="100%" height="100%" viewBox="0 0 69 103" version="1.1" xmlns="http://www.w3.org/2000/svg" xmlns:xlink="http://www.w3.org/1999/xlink" xml:space="preserve" style="fill-rule:evenodd;clip-rule:evenodd;stroke-linejoin:round;stroke-miterlimit:1.41421;">
    <g transform="matrix(-1,0,-0,1,767.97,-446.384)">
        <g transform="matrix(1.02824,0,0,1.04519,151.845,-23.6336)">
            <rect x="550.101" y="498.332" width="33.834" height="24.599" style="fill:rgb(129,148,199);"/>
        </g>
        <g transform="matrix(0.266545,0,0,0.357347,604.786,320.094)">
            <rect x="550.101" y="498.332" width="33.834" height="24.599" style="fill:rgb(109,132,190);"/>
        </g>
        <g transform="matrix(1,0,0,1,167.478,0)">
            <rect x="541.083" y="522.931" width="51.87" height="9.018" style="fill:rgb(47,65,110);"/>
        </g>
        <g transform="matrix(1.02932,0,0,1.05376,149.868,-26.7899)">
            <rect x="550.101" y="472.358" width="50.392" height="25.974" style="fill:rgb(232,218,207);"/>
        </g>
        <g transform="matrix(1.03448,0,0,1.1165,147.03,-55.0288)">
            <rect x="550.101" y="463.34" width="42.852" height="9.018" style="fill:rgb(219,198,180);"/>
        </g>
        <g transform="matrix(1.03164,0,0,1.88017,148.716,-424.776)">
            <rect x="550.101" y="463.34" width="42.852" height="9.018" style="fill:rgb(159,152,109);"/>
        </g>
        <g transform="matrix(0.199302,0,0,1.90064,649.794,-425.262)">
            <rect x="550.101" y="463.34" width="42.852" height="9.018" style="fill:rgb(159,152,109);"/>
        </g>
        <g transform="matrix(0.25738,0,0,1.05313,607.816,-41.5743)">
            <rect x="550.101" y="463.34" width="42.852" height="9.018" style="fill:rgb(142,135,95);"/>
        </g>
        <g transform="matrix(0.4209,0,0,3.86625,468.004,-1345)">
            <rect x="550.101" y="463.34" width="42.852" height="9.018" style="fill:rgb(159,152,109);"/>
        </g>
        <g transform="matrix(0.21045,0,-1.15488e-14,1.88017,583.773,-424.776)">
            <rect x="550.101" y="463.34" width="42.852" height="9.018" style="fill:rgb(142,135,95);"/>
        </g>
        <g transform="matrix(2.5447e-17,-0.415582,1,6.12323e-17,245.22,727.451)">
            <rect x="550.101" y="463.34" width="42.852" height="9.018" style="fill:rgb(219,198,180);"/>
        </g>
        <g transform="matrix(2.4953e-17,-0.407513,1.02896,6.30054e-17,222.785,713.994)">
            <rect x="550.101" y="463.34" width="42.852" height="9.018" style="fill:rgb(219,198,180);"/>
        </g>
        <g transform="matrix(2.47226e-17,-0.403751,1,6.12323e-17,262.398,711.763)">
            <rect x="550.101" y="463.34" width="42.852" height="9.018" style="fill:rgb(101,170,156);"/>
        </g>
        <g transform="matrix(1.23303e-17,-0.201369,1,6.12323e-17,262.398,600.433)">
            <rect x="550.101" y="463.34" width="42.852" height="9.018" style="fill:rgb(83,141,128);"/>
        </g>
        <g transform="matrix(2.47226e-17,-0.403751,1,6.12323e-17,288.072,711.763)">
            <rect x="550.101" y="463.34" width="42.852" height="9.018" style="fill:rgb(101,171,156);"/>
        </g>
        <g transform="matrix(2.36559e-17,-0.38633,1,6.12323e-17,245.22,735.451)">
            <rect x="550.101" y="463.34" width="42.852" height="9.018" style="fill:rgb(219,198,180);"/>
        </g>
        <g transform="matrix(2.57727e-17,-0.4209,1,6.12323e-17,258.872,780.442)">
            <rect x="550.101" y="463.34" width="42.852" height="9.018" style="fill:rgb(47,65,110);"/>
        </g>
        <g transform="matrix(2.57727e-17,-0.4209,1,6.12323e-17,277.043,780.442)">
            <rect x="550.101" y="463.34" width="42.852" height="9.018" style="fill:rgb(47,65,110);"/>
        </g>
        <g transform="matrix(1.23303e-17,-0.201369,1,6.12323e-17,288.072,600.433)">
            <rect x="550.101" y="463.34" width="42.852" height="9.018" style="fill:rgb(83,141,128);"/>
        </g>
        <g transform="matrix(0.266545,0,0,0.350793,561.934,323.521)">
            <rect x="550.101" y="498.332" width="33.834" height="24.599" style="fill:rgb(109,132,190);"/>
        </g>
        <g transform="matrix(2.29879e-17,-0.37542,1,6.12323e-17,288.072,729.45)">
            <rect x="550.101" y="463.34" width="42.852" height="9.018" style="fill:rgb(219,198,180);"/>
        </g>
    </g>
</svg>
