<?xml version="1.0" encoding="UTF-8" standalone="no"?>
<!DOCTYPE svg PUBLIC "-//W3C//DTD SVG 1.1//EN" "http://www.w3.org/Graphics/SVG/1.1/DTD/svg11.dtd">
<svg width="100%" height="100%" viewBox="0 0 1280 36" version="1.1" xmlns="http://www.w3.org/2000/svg" xmlns:xlink="http://www.w3.org/1999/xlink" xml:space="preserve" style="fill-rule:evenodd;clip-rule:evenodd;stroke-linejoin:round;stroke-miterlimit:1.41421;">
    <g transform="matrix(1,2.44929e-16,-2.44929e-16,1,1.9966e-13,-780.088)">
        <g transform="matrix(1.00628,0,0,0.924126,0,94.9644)">
            <path d="M19.985,741.375L39.97,779.341L0,779.341L19.985,741.375Z" style="fill:rgb(70,95,160);"/>
        </g>
        <g transform="matrix(1.00628,0,0,0.924126,40.2206,94.9644)">
            <path d="M19.985,741.375L39.97,779.341L0,779.341L19.985,741.375Z" style="fill:rgb(70,95,160);"/>
        </g>
        <g transform="matrix(1.00628,0,0,0.924126,80.4413,94.9644)">
            <path d="M19.985,741.375L39.97,779.341L0,779.341L19.985,741.375Z" style="fill:rgb(70,95,160);"/>
        </g>
        <g transform="matrix(1.00628,0,0,0.924126,120.662,94.9644)">
            <path d="M19.985,741.375L39.97,779.341L0,779.341L19.985,741.375Z" style="fill:rgb(70,95,160);"/>
        </g>
        <g transform="matrix(1.00628,0,0,0.924126,159.117,94.9644)">
            <path d="M19.985,741.375L39.97,779.341L0,779.341L19.985,741.375Z" style="fill:rgb(70,95,160);"/>
        </g>
        <g transform="matrix(1.00628,0,0,0.924126,199.338,94.9644)">
            <path d="M19.985,741.375L39.97,779.341L0,779.341L19.985,741.375Z" style="fill:rgb(70,95,160);"/>
        </g>
        <g transform="matrix(1.00628,0,0,0.924126,239.559,94.9644)">
            <path d="M19.985,741.375L39.97,779.341L0,779.341L19.985,741.375Z" style="fill:rgb(70,95,160);"/>
        </g>
        <g transform="matrix(1.00628,0,0,0.924126,279.779,94.9644)">
            <path d="M19.985,741.375L39.97,779.341L0,779.341L19.985,741.375Z" style="fill:rgb(70,95,160);"/>
        </g>
        <g transform="matrix(1.00628,0,0,0.924126,320,94.9644)">
            <path d="M19.985,741.375L39.97,779.341L0,779.341L19.985,741.375Z" style="fill:rgb(70,95,160);"/>
        </g>
        <g transform="matrix(1.00628,0,0,0.924126,360.221,94.9644)">
            <path d="M19.985,741.375L39.97,779.341L0,779.341L19.985,741.375Z" style="fill:rgb(70,95,160);"/>
        </g>
        <g transform="matrix(1.00628,0,0,0.924126,400.441,94.9644)">
            <path d="M19.985,741.375L39.97,779.341L0,779.341L19.985,741.375Z" style="fill:rgb(70,95,160);"/>
        </g>
        <g transform="matrix(1.00628,0,0,0.924126,440.662,94.9644)">
            <path d="M19.985,741.375L39.97,779.341L0,779.341L19.985,741.375Z" style="fill:rgb(70,95,160);"/>
        </g>
        <g transform="matrix(1.00628,0,0,0.924126,479.117,94.9644)">
            <path d="M19.985,741.375L39.97,779.341L0,779.341L19.985,741.375Z" style="fill:rgb(70,95,160);"/>
        </g>
        <g transform="matrix(1.00628,0,0,0.924126,519.338,94.9644)">
            <path d="M19.985,741.375L39.97,779.341L0,779.341L19.985,741.375Z" style="fill:rgb(70,95,160);"/>
        </g>
        <g transform="matrix(1.00628,0,0,0.924126,559.559,94.9644)">
            <path d="M19.985,741.375L39.97,779.341L0,779.341L19.985,741.375Z" style="fill:rgb(70,95,160);"/>
        </g>
        <g transform="matrix(1.00628,0,0,0.924126,599.779,94.9644)">
            <path d="M19.985,741.375L39.97,779.341L0,779.341L19.985,741.375Z" style="fill:rgb(70,95,160);"/>
        </g>
        <g transform="matrix(1.00628,0,0,0.924126,640,94.9644)">
            <path d="M19.985,741.375L39.97,779.341L0,779.341L19.985,741.375Z" style="fill:rgb(70,95,160);"/>
        </g>
        <g transform="matrix(1.00628,0,0,0.924126,680.221,94.9644)">
            <path d="M19.985,741.375L39.97,779.341L0,779.341L19.985,741.375Z" style="fill:rgb(70,95,160);"/>
        </g>
        <g transform="matrix(1.00628,0,0,0.924126,720.441,94.9644)">
            <path d="M19.985,741.375L39.97,779.341L0,779.341L19.985,741.375Z" style="fill:rgb(70,95,160);"/>
        </g>
        <g transform="matrix(1.00628,0,0,0.924126,760.662,94.9644)">
            <path d="M19.985,741.375L39.97,779.341L0,779.341L19.985,741.375Z" style="fill:rgb(70,95,160);"/>
        </g>
        <g transform="matrix(1.00628,0,0,0.924126,799.117,94.9644)">
            <path d="M19.985,741.375L39.97,779.341L0,779.341L19.985,741.375Z" style="fill:rgb(70,95,160);"/>
        </g>
        <g transform="matrix(1.00628,0,0,0.924126,839.338,94.9644)">
            <path d="M19.985,741.375L39.97,779.341L0,779.341L19.985,741.375Z" style="fill:rgb(70,95,160);"/>
        </g>
        <g transform="matrix(1.00628,0,0,0.924126,879.559,94.9644)">
            <path d="M19.985,741.375L39.97,779.341L0,779.341L19.985,741.375Z" style="fill:rgb(70,95,160);"/>
        </g>
        <g transform="matrix(1.00628,0,0,0.924126,919.779,94.9644)">
            <path d="M19.985,741.375L39.97,779.341L0,779.341L19.985,741.375Z" style="fill:rgb(70,95,160);"/>
        </g>
        <g transform="matrix(1.00628,0,0,0.924126,960,94.9644)">
            <path d="M19.985,741.375L39.97,779.341L0,779.341L19.985,741.375Z" style="fill:rgb(70,95,160);"/>
        </g>
        <g transform="matrix(1.00628,0,0,0.924126,1000.22,94.9644)">
            <path d="M19.985,741.375L39.97,779.341L0,779.341L19.985,741.375Z" style="fill:rgb(70,95,160);"/>
        </g>
        <g transform="matrix(1.00628,0,0,0.924126,1040.44,94.9644)">
            <path d="M19.985,741.375L39.97,779.341L0,779.341L19.985,741.375Z" style="fill:rgb(70,95,160);"/>
        </g>
        <g transform="matrix(1.00628,0,0,0.924126,1080.66,94.9644)">
            <path d="M19.985,741.375L39.97,779.341L0,779.341L19.985,741.375Z" style="fill:rgb(70,95,160);"/>
        </g>
        <g transform="matrix(1.00628,0,0,0.924126,1119.12,94.9644)">
            <path d="M19.985,741.375L39.97,779.341L0,779.341L19.985,741.375Z" style="fill:rgb(70,95,160);"/>
        </g>
        <g transform="matrix(1.00628,0,0,0.924126,1159.34,94.9644)">
            <path d="M19.985,741.375L39.97,779.341L0,779.341L19.985,741.375Z" style="fill:rgb(70,95,160);"/>
        </g>
        <g transform="matrix(1.00628,0,0,0.924126,1199.56,94.9644)">
            <path d="M19.985,741.375L39.97,779.341L0,779.341L19.985,741.375Z" style="fill:rgb(70,95,160);"/>
        </g>
        <g transform="matrix(1.00628,0,0,0.924126,1239.78,94.9644)">
            <path d="M19.985,741.375L39.97,779.341L0,779.341L19.985,741.375Z" style="fill:rgb(70,95,160);"/>
        </g>
    </g>
</svg>
