<?xml version="1.0" encoding="UTF-8" standalone="no"?>
<!DOCTYPE svg PUBLIC "-//W3C//DTD SVG 1.1//EN" "http://www.w3.org/Graphics/SVG/1.1/DTD/svg11.dtd">
<svg width="100%" height="100%" viewBox="0 0 222 236" version="1.1" xmlns="http://www.w3.org/2000/svg" xmlns:xlink="http://www.w3.org/1999/xlink" xml:space="preserve" style="fill-rule:evenodd;clip-rule:evenodd;stroke-linejoin:round;stroke-miterlimit:1.41421;">
    <g transform="matrix(1.14972,0,0,1.11007,-713.721,-412.154)">
        <path d="M720.636,575.741L726.128,575.741L726.128,539.798L733.142,539.798L733.142,575.741L733.17,575.741L733.17,583.082L720.636,583.082L720.636,575.741Z" style="fill:rgb(206,90,81);"/>
        <path d="M703.662,583.082L703.662,575.741L708.856,575.741L708.856,539.798L716.196,539.798L716.196,583.082L703.662,583.082Z" style="fill:rgb(206,90,81);"/>
        <g transform="matrix(1.04914,0,0,1.04914,25.555,-37.9617)">
            <path d="M590.689,400.916L599.993,398.68L625.577,424.264L596.459,453.382L567.341,424.264L590.689,400.916Z" style="fill:rgb(206,90,81);"/>
            <clipPath id="_clip1">
                <path d="M590.689,400.916L599.993,398.68L625.577,424.264L596.459,453.382L567.341,424.264L590.689,400.916Z"/>
            </clipPath>
            <g clip-path="url(#_clip1)">
                <g id="Layer4" transform="matrix(0.953159,0,0,0.953159,-24.358,36.1836)">
                    <rect x="613.124" y="351.621" width="44.324" height="56.568" style="fill:rgb(142,47,40);"/>
                </g>
            </g>
        </g>
        <path d="M636.631,407.271C636.462,389.546 644.837,379.857 657.546,374.33C660.186,373.182 667.569,371.104 672.602,371.3C692.44,372.072 708.573,387.418 708.573,407.271L708.573,426.571C718.749,420.838 730.496,417.568 743.003,417.568C781.369,417.568 813.396,446.147 813.241,486.696L813.249,555.213L749.79,555.213L749.79,555.21C690.8,554.841 642.377,509.577 637.018,451.882C636.761,449.113 636.631,446.252 636.631,446.252L636.647,441.198L636.631,407.271Z" style="fill:rgb(69,93,160);"/>
        <clipPath id="_clip2">
            <path d="M636.631,407.271C636.462,389.546 644.837,379.857 657.546,374.33C660.186,373.182 667.569,371.104 672.602,371.3C692.44,372.072 708.573,387.418 708.573,407.271L708.573,426.571C718.749,420.838 730.496,417.568 743.003,417.568C781.369,417.568 813.396,446.147 813.241,486.696L813.249,555.213L749.79,555.213L749.79,555.21C690.8,554.841 642.377,509.577 637.018,451.882C636.761,449.113 636.631,446.252 636.631,446.252L636.647,441.198L636.631,407.271Z"/>
        </clipPath>
        <g clip-path="url(#_clip2)">
            <g transform="matrix(1.54334,0,0,1.88595,-428.685,-389.522)">
                <circle cx="776.517" cy="487.551" r="67.661" style="fill:rgb(33,82,128);"/>
            </g>
            <g transform="matrix(1.54334,0,0,1.88595,-385.425,-491.893)">
                <circle cx="776.517" cy="487.551" r="67.661" style="fill:rgb(102,201,150);"/>
            </g>
        </g>
        <g transform="matrix(1.4262,0,0,1.4262,-280.055,-175.184)">
            <circle cx="661.42" cy="404.96" r="4.079" style="fill:rgb(0,1,76);"/>
        </g>
        <circle cx="665.715" cy="399.736" r="1.382" style="fill:rgb(150,151,199);"/>
    </g>
</svg>
