<?xml version="1.0" encoding="UTF-8" standalone="no"?>
<!DOCTYPE svg PUBLIC "-//W3C//DTD SVG 1.1//EN" "http://www.w3.org/Graphics/SVG/1.1/DTD/svg11.dtd">
<svg width="100%" height="100%" viewBox="0 0 89 111" version="1.1" xmlns="http://www.w3.org/2000/svg" xmlns:xlink="http://www.w3.org/1999/xlink" xml:space="preserve" style="fill-rule:evenodd;clip-rule:evenodd;stroke-linejoin:round;stroke-miterlimit:1.41421;">
    <g transform="matrix(1,0,0,1,-876.038,-438.262)">
        <g transform="matrix(2.62667e-17,-0.428969,1,6.12323e-17,444.386,785.226)">
            <rect x="550.101" y="463.34" width="42.852" height="9.018" style="fill:rgb(19,19,19);"/>
        </g>
        <g transform="matrix(2.62667e-17,-0.428969,1,6.12323e-17,462.556,785.226)">
            <rect x="550.101" y="463.34" width="42.852" height="9.018" style="fill:rgb(19,19,19);"/>
        </g>
        <g transform="matrix(0.242669,0,0,6.29744,812.451,-2454.86)">
            <rect x="550.101" y="463.34" width="42.852" height="9.018" style="fill:rgb(53,44,36);"/>
        </g>
        <g transform="matrix(0.216544,0,0,5.45288,836.319,-2063.54)">
            <rect x="550.101" y="463.34" width="42.852" height="9.018" style="fill:rgb(53,44,36);"/>
        </g>
        <g transform="matrix(1,0,0,1.19317,352.991,-102.758)">
            <rect x="541.083" y="522.931" width="51.87" height="9.018" style="fill:rgb(93,31,25);"/>
        </g>
        <g transform="matrix(1.00487,0,0,1.01331,350.067,-6.63322)">
            <rect x="550.101" y="472.358" width="50.392" height="25.974" style="fill:rgb(224,206,191);"/>
        </g>
        <g transform="matrix(1,0,0,1,352.991,0)">
            <rect x="550.101" y="463.34" width="42.852" height="9.018" style="fill:rgb(208,181,158);"/>
        </g>
        <g transform="matrix(1.03164,0,0,1.90064,334.23,-434.441)">
            <rect x="550.101" y="463.34" width="42.852" height="9.018" style="fill:rgb(46,38,31);"/>
        </g>
        <g transform="matrix(0.946977,0,0,1.05313,373.403,-49.6963)">
            <rect x="550.101" y="463.34" width="42.852" height="9.018" style="fill:rgb(46,38,31);"/>
        </g>
        <g transform="matrix(0.72473,0,0,1.05313,505.184,-49.6963)">
            <rect x="550.101" y="463.34" width="42.852" height="9.018" style="fill:rgb(30,25,21);"/>
        </g>
        <g transform="matrix(0.462384,0,0,1.90064,690.586,-425.262)">
            <rect x="550.101" y="463.34" width="42.852" height="9.018" style="fill:rgb(46,38,31);"/>
        </g>
        <g transform="matrix(0.21045,0,0,1.91851,760.269,-416.404)">
            <rect x="550.101" y="463.34" width="42.852" height="9.018" style="fill:rgb(96,79,65);"/>
        </g>
        <g transform="matrix(0.462384,0,0,1.05313,680.557,-41.7588)">
            <rect x="550.101" y="463.34" width="42.852" height="9.018" style="fill:rgb(30,25,21);"/>
        </g>
        <g transform="matrix(0.242669,0,0,1.91851,742.545,-433.544)">
            <rect x="550.101" y="463.34" width="42.852" height="9.018" style="fill:rgb(96,79,65);"/>
        </g>
        <g transform="matrix(0.242669,0,0,6.29744,742.545,-2462.48)">
            <rect x="550.101" y="463.34" width="42.852" height="9.018" style="fill:rgb(53,44,36);"/>
        </g>
        <g transform="matrix(0.257123,0,0,4.29998,742.135,-1511.34)">
            <rect x="550.101" y="463.34" width="42.852" height="9.018" style="fill:rgb(53,44,36);"/>
        </g>
        <g transform="matrix(0.4209,0,0,3.86625,653.518,-1345)">
            <rect x="550.101" y="463.34" width="42.852" height="9.018" style="fill:rgb(46,38,31);"/>
        </g>
        <g transform="matrix(0.21045,0,-1.15488e-14,1.88017,769.287,-424.776)">
            <rect x="550.101" y="463.34" width="42.852" height="9.018" style="fill:rgb(53,44,36);"/>
        </g>
        <g transform="matrix(2.47226e-17,-0.403751,1,6.12323e-17,430.734,720.436)">
            <rect x="550.101" y="463.34" width="42.852" height="9.018" style="fill:rgb(208,181,158);"/>
        </g>
        <g transform="matrix(2.47226e-17,-0.403751,1,6.12323e-17,447.912,711.763)">
            <rect x="550.101" y="463.34" width="42.852" height="9.018" style="fill:rgb(54,44,37);"/>
        </g>
        <g transform="matrix(1.23303e-17,-0.201369,1,6.12323e-17,447.912,600.433)">
            <rect x="550.101" y="463.34" width="42.852" height="9.018" style="fill:rgb(30,25,21);"/>
        </g>
        <g transform="matrix(1.23303e-17,-0.201369,0.904816,5.5404e-17,483.855,609.062)">
            <rect x="550.101" y="463.34" width="42.852" height="9.018" style="fill:rgb(198,150,142);"/>
        </g>
        <g transform="matrix(1.23303e-17,-0.201369,0.836138,5.11987e-17,558.528,609.062)">
            <rect x="550.101" y="463.34" width="42.852" height="9.018" style="fill:rgb(198,150,142);"/>
        </g>
        <g transform="matrix(2.47226e-17,-0.403751,1,6.12323e-17,473.586,711.763)">
            <rect x="550.101" y="463.34" width="42.852" height="9.018" style="fill:rgb(54,44,37);"/>
        </g>
        <g transform="matrix(3.51498e-17,-0.57404,1,6.12323e-17,430.734,838.711)">
            <rect x="550.101" y="463.34" width="42.852" height="9.018" style="fill:rgb(198,165,136);"/>
        </g>
        <g transform="matrix(1.23303e-17,-0.201369,1,6.12323e-17,473.586,600.433)">
            <rect x="550.101" y="463.34" width="42.852" height="9.018" style="fill:rgb(30,25,21);"/>
        </g>
        <g transform="matrix(1.02269,0,0,1,340.51,0)">
            <rect x="550.101" y="498.332" width="33.834" height="24.599" style="fill:rgb(93,31,25);"/>
        </g>
        <g transform="matrix(3.51498e-17,-0.57404,1,6.12323e-17,473.683,838.711)">
            <rect x="550.101" y="463.34" width="42.852" height="9.018" style="fill:rgb(198,165,136);"/>
        </g>
        <g transform="matrix(2.4953e-17,-0.407513,1.02896,6.30054e-17,408.299,713.994)">
            <rect x="550.101" y="463.34" width="42.852" height="9.018" style="fill:rgb(219,198,180);"/>
        </g>
        <g transform="matrix(0.266545,0,0,0.350793,747.448,323.521)">
            <rect x="550.101" y="498.332" width="33.834" height="24.599" style="fill:rgb(70,23,19);"/>
        </g>
        <g transform="matrix(0.266545,0,0,0.350793,790.396,323.521)">
            <rect x="550.101" y="498.332" width="33.834" height="24.599" style="fill:rgb(70,23,19);"/>
        </g>
    </g>
</svg>
