<?xml version="1.0" encoding="UTF-8" standalone="no"?>
<!DOCTYPE svg PUBLIC "-//W3C//DTD SVG 1.1//EN" "http://www.w3.org/Graphics/SVG/1.1/DTD/svg11.dtd">
<svg width="100%" height="100%" viewBox="0 0 89 111" version="1.1" xmlns="http://www.w3.org/2000/svg" xmlns:xlink="http://www.w3.org/1999/xlink" xml:space="preserve" style="fill-rule:evenodd;clip-rule:evenodd;stroke-linejoin:round;stroke-miterlimit:1.41421;">
    <g transform="matrix(1,0,0,1,-523.046,-438.262)">
        <g transform="matrix(1.19939,0,0,1.02987,-111.92,-15.6222)">
            <rect x="550.101" y="498.332" width="33.834" height="24.599" style="fill:rgb(193,193,193);"/>
        </g>
        <rect x="541.083" y="522.931" width="51.87" height="9.018" style="fill:rgb(60,60,60);"/>
        <g transform="matrix(1.04439,0,0,1.05376,-26.6561,-26.7899)">
            <rect x="550.101" y="472.358" width="50.392" height="25.974" style="fill:rgb(239,213,191);"/>
        </g>
        <rect x="550.101" y="463.34" width="42.852" height="9.018" style="fill:rgb(239,201,169);"/>
        <g transform="matrix(1.03164,0,0,1.90064,-18.7616,-434.441)">
            <rect x="550.101" y="463.34" width="42.852" height="9.018" style="fill:rgb(46,38,31);"/>
        </g>
        <g transform="matrix(0.946977,0,0,1.05313,20.4112,-49.6963)">
            <rect x="550.101" y="463.34" width="42.852" height="9.018" style="fill:rgb(46,38,31);"/>
        </g>
        <g transform="matrix(0.72473,0,0,1.05313,152.193,-49.6963)">
            <rect x="550.101" y="463.34" width="42.852" height="9.018" style="fill:rgb(30,25,21);"/>
        </g>
        <g transform="matrix(0.456681,0,0,1.90064,340.732,-425.262)">
            <rect x="550.101" y="463.34" width="42.852" height="9.018" style="fill:rgb(46,38,31);"/>
        </g>
        <g transform="matrix(0.21045,0,0,1.91851,407.278,-416.404)">
            <rect x="550.101" y="463.34" width="42.852" height="9.018" style="fill:rgb(96,79,65);"/>
        </g>
        <g transform="matrix(0.25738,0,0,1.05313,440.338,-41.5743)">
            <rect x="550.101" y="463.34" width="42.852" height="9.018" style="fill:rgb(30,25,21);"/>
        </g>
        <g transform="matrix(0.242669,0,0,1.91851,389.554,-433.544)">
            <rect x="550.101" y="463.34" width="42.852" height="9.018" style="fill:rgb(96,79,65);"/>
        </g>
        <g transform="matrix(0.242669,0,0,3.80127,389.554,-1305.9)">
            <rect x="550.101" y="463.34" width="42.852" height="9.018" style="fill:rgb(53,44,36);"/>
        </g>
        <g transform="matrix(0.4209,0,0,3.86625,300.527,-1345)">
            <rect x="550.101" y="463.34" width="42.852" height="9.018" style="fill:rgb(46,38,31);"/>
        </g>
        <g transform="matrix(0.21045,0,-1.15488e-14,1.88017,416.296,-424.776)">
            <rect x="550.101" y="463.34" width="42.852" height="9.018" style="fill:rgb(53,44,36);"/>
        </g>
        <g transform="matrix(2.663e-17,-0.434901,1,6.12323e-17,77.7425,738.906)">
            <rect x="550.101" y="463.34" width="42.852" height="9.018" style="fill:rgb(239,201,169);"/>
        </g>
        <g transform="matrix(2.4953e-17,-0.407513,1.02896,6.30054e-17,55.3078,713.994)">
            <rect x="550.101" y="463.34" width="42.852" height="9.018" style="fill:rgb(239,201,169);"/>
        </g>
        <g transform="matrix(2.47226e-17,-0.403751,1,6.12323e-17,94.9204,711.763)">
            <rect x="550.101" y="463.34" width="42.852" height="9.018" style="fill:rgb(113,167,77);"/>
        </g>
        <g transform="matrix(1.23303e-17,-0.201369,1,6.12323e-17,94.9204,600.433)">
            <rect x="550.101" y="463.34" width="42.852" height="9.018" style="fill:rgb(91,135,62);"/>
        </g>
        <g transform="matrix(2.47226e-17,-0.403751,1,6.12323e-17,120.594,711.763)">
            <rect x="550.101" y="463.34" width="42.852" height="9.018" style="fill:rgb(113,167,77);"/>
        </g>
        <g transform="matrix(1.53757e-17,-0.251103,1,6.12323e-17,77.7425,661.063)">
            <rect x="550.101" y="463.34" width="42.852" height="9.018" style="fill:rgb(239,201,169);"/>
        </g>
        <g transform="matrix(1.53757e-17,-0.251103,1,6.12323e-17,120.594,661.063)">
            <rect x="550.101" y="463.34" width="42.852" height="9.018" style="fill:rgb(239,201,169);"/>
        </g>
        <g transform="matrix(2.663e-17,-0.434901,1,6.12323e-17,91.3943,788.744)">
            <rect x="550.101" y="463.34" width="42.852" height="9.018" style="fill:rgb(60,60,60);"/>
        </g>
        <g transform="matrix(2.663e-17,-0.434901,1,6.12323e-17,109.565,788.744)">
            <rect x="550.101" y="463.34" width="42.852" height="9.018" style="fill:rgb(60,60,60);"/>
        </g>
        <g transform="matrix(1.23303e-17,-0.201369,1,6.12323e-17,120.594,600.433)">
            <rect x="550.101" y="463.34" width="42.852" height="9.018" style="fill:rgb(91,135,62);"/>
        </g>
        <g transform="matrix(0.266545,0,0,0.633388,394.456,182.695)">
            <rect x="550.101" y="498.332" width="33.834" height="24.599" style="fill:rgb(214,214,214);"/>
        </g>
        <g transform="matrix(0.266545,0,0,0.639942,437.308,179.267)">
            <rect x="550.101" y="498.332" width="33.834" height="24.599" style="fill:rgb(214,214,214);"/>
        </g>
    </g>
</svg>
